<svg width="19" height="19" viewBox="0 0 19 19" fill="none" xmlns="http://www.w3.org/2000/svg">
<path d="M4.04473 18.5H0.312946V6.48232H4.04473V18.5ZM2.17683 4.843C0.983527 4.843 0.015625 3.85458 0.015625 2.66125C0.015625 2.08805 0.243323 1.53833 0.648627 1.13302C1.05393 0.727703 1.60364 0.5 2.17683 0.5C2.75002 0.5 3.29973 0.727703 3.70503 1.13302C4.11034 1.53833 4.33804 2.08805 4.33804 2.66125C4.33804 3.85458 3.36973 4.843 2.17683 4.843ZM18.0116 18.5H14.2879V12.6499C14.2879 11.2556 14.2597 9.46766 12.3476 9.46766C10.4074 9.46766 10.1101 10.9824 10.1101 12.5494V18.5H6.38232V6.48232H9.96143V8.12164H10.0137C10.5119 7.17743 11.7289 6.18097 13.5446 6.18097C17.3213 6.18097 18.0156 8.66808 18.0156 11.8985V18.5H18.0116Z" fill="white"/>
</svg>
